<?xml version="1.0" encoding="iso-8859-1"?>
<!-- Generator: Adobe Illustrator 19.0.0, SVG Export Plug-In . SVG Version: 6.00 Build 0)  -->
<svg version="1.1" id="Capa_1" xmlns="http://www.w3.org/2000/svg" xmlns:xlink="http://www.w3.org/1999/xlink" x="0px" y="0px"
	 viewBox="0 0 511.996 511.996" style="enable-background:new 0 0 511.996 511.996;" xml:space="preserve">
<g>
	<g>
		<path d="M509.49,159.43c-4.441-14.564-14.288-26.526-27.727-33.685c-7.223-3.847-15.021-6.041-22.947-6.574
			c0.406-6.389-0.315-12.837-2.166-19.02c-4.418-14.873-15.01-27.186-29.059-33.78c-10.518-4.944-22.093-6.395-33.473-4.197
			c-4.067,0.786-6.727,4.72-5.941,8.787c0.786,4.067,4.71,6.731,8.787,5.941c8.238-1.593,16.623-0.54,24.249,3.045
			c10.183,4.78,17.856,13.701,21.062,24.49c1.534,5.124,1.997,10.486,1.399,15.745c-1.788,0.365-3.569,0.812-5.336,1.351
			c-6.494,1.98-12.465,5.042-17.728,9.01c-1.652-2.992-3.671-5.779-6.033-8.284c-3.097-3.307-6.747-6.079-10.857-8.243
			c-11.162-5.863-23.806-6.094-34.678-1.726l-3.639-6.716c1.102-2.196,2.192-4.415,3.249-6.662c1.704-3.63,3.926-6.958,6.603-9.893
			c2.791-3.06,2.574-7.804-0.486-10.596c-3.06-2.79-7.804-2.573-10.596,0.486c-3.615,3.963-6.62,8.443-8.943,13.311
			c-8.322-6.15-19.791-7.343-29.471-2.099c-6.459,3.502-11.163,9.307-13.246,16.344c-2.084,7.041-1.307,14.468,2.188,20.911
			l5.938,10.957c1.545,2.852,0.481,6.43-2.365,7.974c-1.379,0.747-2.974,0.911-4.474,0.469c-1.507-0.45-2.753-1.463-3.501-2.836
			l-2.541-4.69c-4.17-7.696-11.089-13.307-19.48-15.797c-8.392-2.49-17.25-1.565-24.942,2.605
			c-7.696,4.167-13.308,11.086-15.795,19.468c-2.5,8.374-1.58,17.231,2.598,24.958l2.543,4.678c1.545,2.852,0.481,6.43-2.364,7.974
			l-4.715,2.553c-1.377,0.746-2.965,0.911-4.468,0.466c-1.504-0.447-2.745-1.454-3.493-2.836c-0.057-0.104-0.116-0.209-0.179-0.312
			l-10.661-17.612c-5.539-10.122-14.677-17.501-25.748-20.79c-11.136-3.309-22.886-2.079-33.084,3.452
			c-10.207,5.523-17.656,14.698-20.979,25.842c-3.306,11.143-2.073,22.895,3.47,33.094c0.072,0.133,0.147,0.262,0.228,0.39
			l8.342,13.367c2.652,5.127,0.716,11.478-4.388,14.241c-2.495,1.354-5.369,1.656-8.088,0.851c-2.719-0.807-4.963-2.629-6.316-5.129
			l-1.263-2.334c-7.981-14.729-26.468-20.222-41.213-12.237c-7.141,3.878-12.341,10.296-14.641,18.066
			c-2.31,7.787-1.456,16.003,2.406,23.136l5.803,10.705c0.182,0.334,0.148,0.643,0.089,0.844s-0.202,0.48-0.535,0.66
			c-0.362,0.196-0.705,0.143-0.856,0.098c-0.298-0.089-0.525-0.273-0.673-0.545l-4.638-8.556c-5.241-9.684-17.394-13.3-27.104-8.051
			c-4.67,2.537-8.088,6.746-9.636,11.896c-1.509,5.133-0.938,10.535,1.601,15.195l3.296,6.085c-2.684,0.38-4.138,0.543-4.157,0.545
			C18.898,289.405-2.824,316.27,0.299,346.11c0.59,5.635,2.037,11.106,4.301,16.261c3.33,7.594,8.356,14.299,14.676,19.644
			c-1.015,4.781-1.436,9.766-1.16,14.87c1.633,30.236,26.907,53.932,56.887,53.932c0.833,0,1.673-0.019,2.513-0.056l0.592-0.028
			c3.11-0.168,77.192-4.462,165.48-35.948c52.533-18.736,99.691-43.334,140.164-73.109c28.94-21.29,54.723-45.491,76.633-71.931
			c2.644-3.189,2.2-7.917-0.989-10.56c-3.188-2.643-7.917-2.202-10.56,0.989c-21.129,25.497-46.018,48.852-73.973,69.419
			c-39.296,28.908-85.157,52.817-136.314,71.062c-86.256,30.762-158.226,34.937-161.243,35.099l-0.431,0.021
			c-22.895,0.991-42.546-16.799-43.781-39.699c-1.245-23.081,16.516-42.91,39.603-44.202c0.08-0.004,8.357-0.508,22.216-2.364
			c4.105-0.55,6.987-4.324,6.438-8.43c-0.551-4.106-4.325-6.991-8.43-6.438c-13.285,1.779-21.013,2.252-21.071,2.256
			c-9.1,0.509-17.583,3.154-25.009,7.402c-1.685-3.338-2.648-7.004-2.787-10.861c-0.151-4.239,0.687-8.329,2.489-12.156
			c4.225-8.964,12.992-14.758,22.886-15.121c0.33-0.013,21.075-0.882,51.895-6.992c2.15,5.221,6.314,12.571,13.641,16.352
			c4.125,2.127,10.896,3.908,19.753,0.313c7.205-2.926,12.409-6.884,16.591-10.063c7.823-5.949,9.927-7.549,19.104-1.351
			c2.72,1.838,5.195,3.697,7.574,5.523c-23.526,8.003-48.158,14.539-73.374,19.459c-4.065,0.794-6.718,4.732-5.925,8.798
			c0.699,3.581,3.837,6.064,7.354,6.064c0.476,0,0.959-0.045,1.444-0.14c29.495-5.757,58.227-13.669,85.4-23.515
			c96.615-35.01,165.591-90.289,205.013-164.303c5.273-9.902,14.088-17.157,24.818-20.43c10.732-3.274,22.096-2.171,32,3.104
			c9.902,5.274,17.156,14.09,20.43,24.82c3.272,10.732,2.17,22.095-3.104,31.998c-7.003,13.146-14.869,26.023-23.38,38.275
			c-2.363,3.401-1.521,8.075,1.88,10.438c3.401,2.363,8.075,1.521,10.438-1.88c8.848-12.734,17.023-26.118,24.3-39.782
			C512.434,189.415,513.931,173.994,509.49,159.43z M29.058,333.98c0.25,6.909,2.25,13.637,5.724,19.531
			c-3.874,3.873-7.189,8.293-9.824,13.125c-2.721-3.06-4.973-6.518-6.628-10.292c-1.641-3.736-2.689-7.706-3.118-11.796
			c-1.928-18.421,9.21-35.27,25.913-41.292c-3.308,3.319-6.083,7.233-8.157,11.636C30.176,320.818,28.823,327.417,29.058,333.98z
			 M72.779,290.93l-10.019-18.497c-0.635-1.16-0.774-2.513-0.407-3.763c0.388-1.291,1.247-2.353,2.404-2.981
			c2.426-1.31,5.462-0.411,6.77,2.007l4.643,8.564c2.055,3.785,5.459,6.545,9.606,7.776c4.118,1.21,8.466,0.753,12.248-1.291
			c3.788-2.052,6.549-5.456,7.774-9.584c1.225-4.128,0.769-8.485-1.284-12.265L98.716,250.2c-1.955-3.611-2.387-7.776-1.214-11.73
			c1.164-3.934,3.799-7.182,7.409-9.143c7.467-4.043,16.832-1.263,20.871,6.193l1.264,2.334c3.266,6.027,8.678,10.42,15.241,12.367
			c6.563,1.944,13.494,1.219,19.503-2.046c12.428-6.729,17.063-22.315,10.334-34.745c-0.073-0.135-0.151-0.269-0.233-0.399
			l-8.354-13.388c-3.541-6.632-4.313-14.25-2.17-21.468c2.176-7.297,7.056-13.309,13.748-16.93
			c6.683-3.625,14.379-4.427,21.667-2.263c7.291,2.166,13.3,7.039,16.92,13.723c0.058,0.104,0.117,0.208,0.179,0.311l10.668,17.623
			c2.666,4.814,7.031,8.324,12.313,9.894c5.345,1.589,10.99,1.001,15.885-1.655l4.716-2.553
			c10.116-5.488,13.888-18.185,8.402-28.315l-2.541-4.674c-2.263-4.185-2.764-8.985-1.407-13.529c1.35-4.551,4.391-8.3,8.563-10.56
			c4.176-2.264,8.981-2.765,13.531-1.414c4.55,1.351,8.301,4.392,10.561,8.563l2.549,4.705c2.663,4.89,7.063,8.458,12.416,10.057
			c5.353,1.576,10.992,0.987,15.886-1.661c10.116-5.488,13.888-18.185,8.407-28.307l-5.941-10.961
			c-1.587-2.927-1.938-6.303-0.991-9.506c0.944-3.191,3.08-5.825,6.011-7.414c6.053-3.28,13.65-1.022,16.934,5.028l6.498,11.991
			c-3.34,3.096-6.226,6.792-8.463,11.046c-32.662,62.131-88.747,107.816-166.701,135.787
			C130.107,285.496,85.853,289.962,72.779,290.93z M269.375,279.304c-3.85-10.342-3.844-14.012,1.644-17.803
			c16.971-11.727,26.904-16.486,38.826-6.957C297.234,263.398,283.741,271.653,269.375,279.304z M322.227,245.446
			c-23.327-21.441-44.215-7.011-59.734,3.715c-15.916,10.997-10.68,26.359-6.561,37.012c-13.035,6.37-26.735,12.274-41.094,17.707
			c-1.89-1.345-3.831-2.832-5.851-4.392c-2.981-2.303-6.361-4.913-10.182-7.494c-18.091-12.221-27.916-4.75-36.582,1.839
			c-3.835,2.916-7.8,5.931-13.156,8.106c-3.858,1.565-5.961,0.903-7.207,0.267c-2.321-1.185-4.167-3.737-5.501-6.275
			c15.216-3.542,32.16-8.292,49.88-14.653c56.429-20.247,101.97-49.496,136.099-87.29c6.829,8.703,15.829,20.31,23.864,31.112
			C338.65,232.173,330.657,238.956,322.227,245.446z M404.653,149.261c-12.661,23.772-28.579,45.528-47.655,65.229
			c-8.575-11.479-18.015-23.607-24.735-32.149c11.002-13.656,20.648-28.315,28.886-43.985c6.764-12.857,22.728-17.821,35.587-11.064
			c2.621,1.38,4.939,3.136,6.907,5.238c2.541,2.695,4.468,5.888,5.683,9.363C407.601,144.208,406.036,146.666,404.653,149.261z"/>
	</g>
</g>
<g>
</g>
<g>
</g>
<g>
</g>
<g>
</g>
<g>
</g>
<g>
</g>
<g>
</g>
<g>
</g>
<g>
</g>
<g>
</g>
<g>
</g>
<g>
</g>
<g>
</g>
<g>
</g>
<g>
</g>
</svg>
