<?xml version="1.0" encoding="iso-8859-1"?>
<!-- Generator: Adobe Illustrator 19.0.0, SVG Export Plug-In . SVG Version: 6.00 Build 0)  -->
<svg version="1.1" id="Capa_1" xmlns="http://www.w3.org/2000/svg" xmlns:xlink="http://www.w3.org/1999/xlink" x="0px" y="0px"
	 viewBox="0 0 512 512" style="enable-background:new 0 0 512 512;" xml:space="preserve">
<g>
	<g>
		<g>
			<path d="M277.333,0c-237.542,0-256,130.625-256,170.667V256c0,60.094,49.135,72.625,92.479,83.677
				c26.479,6.76,53.854,13.74,70.646,30.531c12.146,12.146,24.563,29.198,37.708,47.24C254.438,461.771,291.01,512,341.333,512
				c72.802,0,149.333-177.635,149.333-256v-85.333C490.667,88.594,409.104,0,277.333,0z M341.333,490.667
				c-39.469,0-72.646-45.573-101.927-85.771c-13.646-18.74-26.531-36.448-39.865-49.771c-20.927-20.927-51.188-28.656-80.458-36.115
				C71.708,306.917,42.667,297.417,42.667,256v-32.408c18.324,16.953,45.617,24.242,71.146,30.751
				c26.479,6.76,53.854,13.74,70.646,30.531c12.146,12.146,24.563,29.198,37.708,47.24c32.271,44.323,68.844,94.552,119.167,94.552
				c48.824,0,99.211-79.88,127.181-156.143C460.413,348.849,392.915,490.667,341.333,490.667z M341.333,405.333
				c-39.469,0-72.646-45.573-101.927-85.771c-13.646-18.74-26.531-36.448-39.865-49.771c-20.927-20.927-51.188-28.656-80.458-36.115
				c-47.375-12.094-76.417-21.594-76.417-63.01c0-44.896,22.865-149.333,234.667-149.333c118.594,0,192,77.51,192,149.333
				C469.333,244.323,396.292,405.333,341.333,405.333z"/>
			<path d="M224,234.667c-5.896,0-10.667,4.771-10.667,10.667c0,5.896,4.771,10.667,10.667,10.667
				c24.75,0,75.083-18.344,123.771-36.083C383.667,206.833,424.365,192,437.333,192c5.896,0,10.667-4.771,10.667-10.667
				c0-5.896-4.771-10.667-10.667-10.667c-16.729,0-53.875,13.531-96.875,29.208C295.708,216.177,244.979,234.667,224,234.667z"/>
			<path d="M416,128c5.896,0,10.667-4.771,10.667-10.667c0-5.896-4.771-10.667-10.667-10.667c-15.75,0-61.417,14.667-134.615,38.604
				C217.729,166.094,138.5,192,117.333,192c-5.896,0-10.667,4.771-10.667,10.667c0,5.896,4.771,10.667,10.667,10.667
				c22.854,0,82.417-18.917,170.688-47.781C341.844,147.948,402.844,128,416,128z"/>
			<path d="M352,64c5.896,0,10.667-4.771,10.667-10.667c0-5.896-4.771-10.667-10.667-10.667c-15.885,0-57.99,14.708-125.354,38.698
				C168.302,102.146,95.688,128,74.667,128C68.771,128,64,132.771,64,138.667c0,5.896,4.771,10.667,10.667,10.667
				c22.99,0,77.938-18.958,159.135-47.875C283.104,83.906,338.99,64,352,64z"/>
			<path d="M416,256c-24.833,0-57.188,12.365-88.479,24.333c-23.583,9.01-47.969,18.333-60.854,18.333
				c-5.896,0-10.667,4.771-10.667,10.667c0,5.896,4.771,10.667,10.667,10.667c16.823,0,40.75-9.146,68.469-19.74
				c28.104-10.75,59.969-22.927,80.865-22.927c5.896,0,10.667-4.771,10.667-10.667C426.667,260.771,421.896,256,416,256z"/>
		</g>
	</g>
</g>
<g>
</g>
<g>
</g>
<g>
</g>
<g>
</g>
<g>
</g>
<g>
</g>
<g>
</g>
<g>
</g>
<g>
</g>
<g>
</g>
<g>
</g>
<g>
</g>
<g>
</g>
<g>
</g>
<g>
</g>
</svg>
